<svg width="335" height="245" viewBox="0 0 335 245" fill="none" xmlns="http://www.w3.org/2000/svg">
<path d="M155.249 173.588C146.534 173.588 139.442 170.736 133.976 165.032C128.509 159.287 125.775 151.622 125.775 142.035V140.015C125.775 133.637 126.984 127.952 129.4 122.96C131.856 117.929 135.263 114.007 139.621 111.195C144.018 108.342 148.772 106.916 153.882 106.916C162.241 106.916 168.738 109.669 173.373 115.176C178.008 120.682 180.325 128.566 180.325 138.826V143.402H136.768C136.927 149.74 138.769 154.87 142.295 158.792C145.86 162.675 150.376 164.616 155.843 164.616C159.725 164.616 163.013 163.823 165.707 162.239C168.401 160.654 170.758 158.555 172.779 155.94L179.493 161.169C174.106 169.449 166.024 173.588 155.249 173.588ZM153.882 115.948C149.445 115.948 145.721 117.573 142.711 120.821C139.7 124.03 137.838 128.546 137.125 134.37H169.332V133.538C169.015 127.952 167.51 123.634 164.816 120.583C162.122 117.493 158.478 115.948 153.882 115.948ZM208.016 92.5359V108.105H220.02V116.602H208.016V156.475C208.016 159.05 208.551 160.991 209.621 162.298C210.69 163.566 212.513 164.2 215.088 164.2C216.355 164.2 218.098 163.962 220.317 163.487V172.4C217.425 173.192 214.612 173.588 211.879 173.588C206.966 173.588 203.262 172.103 200.767 169.132C198.271 166.161 197.023 161.942 197.023 156.475V116.602H185.317V108.105H197.023V92.5359H208.016ZM228.814 139.658C228.814 133.359 230.042 127.694 232.498 122.663C234.994 117.632 238.441 113.75 242.838 111.016C247.275 108.283 252.326 106.916 257.991 106.916C266.746 106.916 273.817 109.947 279.205 116.008C284.632 122.069 287.346 130.131 287.346 140.193V140.965C287.346 147.225 286.137 152.85 283.721 157.841C281.344 162.793 277.917 166.656 273.441 169.429C269.004 172.202 263.893 173.588 258.11 173.588C249.394 173.588 242.323 170.558 236.896 164.497C231.508 158.436 228.814 150.414 228.814 140.431V139.658ZM239.867 140.965C239.867 148.096 241.511 153.821 244.799 158.139C248.127 162.457 252.563 164.616 258.11 164.616C263.695 164.616 268.132 162.437 271.42 158.079C274.708 153.682 276.352 147.542 276.352 139.658C276.352 132.607 274.669 126.902 271.301 122.544C267.974 118.147 263.537 115.948 257.991 115.948C252.563 115.948 248.186 118.108 244.858 122.426C241.531 126.744 239.867 132.924 239.867 140.965ZM332.21 117.969C330.546 117.692 328.743 117.553 326.802 117.553C319.592 117.553 314.7 120.623 312.125 126.763V172.4H301.132V108.105H311.828L312.006 115.533C315.611 109.788 320.721 106.916 327.337 106.916C329.476 106.916 331.1 107.194 332.21 107.748V117.969Z" fill="#606060"/>
<path d="M155.989 206.998H143.54V220.098H139.629V190.434H158.005V193.653H143.54V203.799H155.989V206.998ZM166.196 220.098H162.427V198.054H166.196V220.098ZM162.121 192.206C162.121 191.595 162.304 191.079 162.671 190.658C163.051 190.237 163.608 190.026 164.342 190.026C165.075 190.026 165.632 190.237 166.012 190.658C166.393 191.079 166.583 191.595 166.583 192.206C166.583 192.818 166.393 193.327 166.012 193.734C165.632 194.142 165.075 194.346 164.342 194.346C163.608 194.346 163.051 194.142 162.671 193.734C162.304 193.327 162.121 192.818 162.121 192.206ZM175.812 198.054L175.934 200.824C177.618 198.706 179.819 197.646 182.535 197.646C187.194 197.646 189.544 200.274 189.584 205.531V220.098H185.815V205.51C185.802 203.921 185.435 202.746 184.715 201.986C184.009 201.225 182.902 200.845 181.394 200.845C180.172 200.845 179.099 201.171 178.175 201.823C177.252 202.475 176.532 203.33 176.016 204.39V220.098H172.247V198.054H175.812ZM208.878 220.098C208.661 219.663 208.484 218.889 208.348 217.775C206.596 219.595 204.505 220.505 202.073 220.505C199.9 220.505 198.114 219.894 196.715 218.672C195.33 217.436 194.637 215.874 194.637 213.986C194.637 211.69 195.506 209.911 197.245 208.648C198.997 207.371 201.455 206.733 204.62 206.733H208.287V205.001C208.287 203.683 207.893 202.638 207.106 201.863C206.318 201.076 205.157 200.682 203.622 200.682C202.277 200.682 201.15 201.021 200.24 201.7C199.33 202.38 198.875 203.201 198.875 204.166H195.085C195.085 203.065 195.472 202.006 196.247 200.987C197.034 199.955 198.094 199.14 199.425 198.543C200.769 197.945 202.243 197.646 203.846 197.646C206.386 197.646 208.376 198.285 209.815 199.561C211.255 200.824 212.002 202.57 212.056 204.797V214.943C212.056 216.967 212.314 218.577 212.831 219.772V220.098H208.878ZM202.623 217.225C203.805 217.225 204.926 216.919 205.985 216.308C207.045 215.697 207.812 214.902 208.287 213.925V209.402H205.333C200.715 209.402 198.406 210.753 198.406 213.456C198.406 214.638 198.8 215.561 199.588 216.227C200.376 216.892 201.387 217.225 202.623 217.225ZM221.53 198.054L221.652 200.824C223.337 198.706 225.537 197.646 228.253 197.646C232.912 197.646 235.262 200.274 235.303 205.531V220.098H231.533V205.51C231.52 203.921 231.153 202.746 230.433 201.986C229.727 201.225 228.62 200.845 227.112 200.845C225.89 200.845 224.817 201.171 223.893 201.823C222.97 202.475 222.25 203.33 221.734 204.39V220.098H217.965V198.054H221.53ZM249.829 217.429C251.173 217.429 252.348 217.021 253.353 216.206C254.359 215.391 254.915 214.373 255.024 213.15H258.589C258.522 214.414 258.087 215.616 257.286 216.756C256.484 217.897 255.411 218.807 254.067 219.487C252.735 220.166 251.323 220.505 249.829 220.505C246.827 220.505 244.437 219.507 242.657 217.51C240.892 215.5 240.009 212.756 240.009 209.279V208.648C240.009 206.502 240.403 204.594 241.19 202.923C241.978 201.252 243.106 199.955 244.572 199.032C246.053 198.108 247.798 197.646 249.808 197.646C252.28 197.646 254.331 198.386 255.961 199.867C257.605 201.347 258.481 203.269 258.589 205.633H255.024C254.915 204.206 254.372 203.038 253.394 202.128C252.43 201.205 251.235 200.743 249.808 200.743C247.893 200.743 246.406 201.436 245.347 202.821C244.301 204.193 243.778 206.183 243.778 208.79V209.504C243.778 212.043 244.301 213.999 245.347 215.371C246.393 216.743 247.887 217.429 249.829 217.429ZM271.975 220.505C268.987 220.505 266.555 219.527 264.681 217.571C262.807 215.602 261.87 212.974 261.87 209.687V208.994C261.87 206.807 262.284 204.858 263.112 203.147C263.954 201.422 265.123 200.077 266.617 199.113C268.124 198.135 269.754 197.646 271.506 197.646C274.372 197.646 276.6 198.59 278.189 200.478C279.778 202.366 280.572 205.069 280.572 208.587V210.155H265.639C265.693 212.329 266.325 214.088 267.533 215.432C268.756 216.763 270.304 217.429 272.179 217.429C273.51 217.429 274.637 217.157 275.561 216.614C276.484 216.071 277.292 215.351 277.985 214.454L280.287 216.247C278.44 219.086 275.669 220.505 271.975 220.505ZM271.506 200.743C269.985 200.743 268.708 201.3 267.676 202.414C266.644 203.514 266.005 205.062 265.761 207.059H276.803V206.773C276.695 204.858 276.179 203.378 275.255 202.332C274.331 201.273 273.082 200.743 271.506 200.743ZM289.048 220.098H285.279V198.054H289.048V220.098ZM284.973 192.206C284.973 191.595 285.156 191.079 285.523 190.658C285.904 190.237 286.46 190.026 287.194 190.026C287.927 190.026 288.484 190.237 288.864 190.658C289.245 191.079 289.435 191.595 289.435 192.206C289.435 192.818 289.245 193.327 288.864 193.734C288.484 194.142 287.927 194.346 287.194 194.346C286.46 194.346 285.904 194.142 285.523 193.734C285.156 193.327 284.973 192.818 284.973 192.206ZM305.754 201.436C305.184 201.341 304.566 201.293 303.9 201.293C301.428 201.293 299.751 202.346 298.868 204.451V220.098H295.099V198.054H298.766L298.827 200.6C300.063 198.631 301.815 197.646 304.083 197.646C304.817 197.646 305.374 197.741 305.754 197.931V201.436ZM307.832 208.872C307.832 206.712 308.253 204.77 309.095 203.045C309.951 201.32 311.133 199.989 312.64 199.052C314.162 198.115 315.893 197.646 317.836 197.646C320.837 197.646 323.262 198.685 325.109 200.763C326.97 202.841 327.9 205.605 327.9 209.055V209.32C327.9 211.466 327.486 213.395 326.657 215.106C325.842 216.804 324.667 218.128 323.133 219.079C321.611 220.03 319.859 220.505 317.876 220.505C314.888 220.505 312.464 219.466 310.603 217.388C308.756 215.31 307.832 212.56 307.832 209.137V208.872ZM311.622 209.32C311.622 211.765 312.185 213.728 313.313 215.208C314.454 216.689 315.975 217.429 317.876 217.429C319.791 217.429 321.313 216.682 322.44 215.188C323.567 213.68 324.131 211.575 324.131 208.872C324.131 206.454 323.554 204.498 322.399 203.004C321.258 201.497 319.737 200.743 317.836 200.743C315.975 200.743 314.474 201.483 313.333 202.964C312.192 204.444 311.622 206.563 311.622 209.32Z" fill="#606060"/>
<path d="M80.4753 153.985C80.4753 148.416 78.9133 144.002 75.7894 140.742C72.7334 137.414 67.5042 134.358 60.1018 131.574C52.6994 128.79 46.3158 126.039 40.9507 123.323C35.5857 120.538 30.9677 117.38 27.0968 113.849C23.2937 110.25 20.3056 106.039 18.1324 101.217C16.0272 96.3957 14.9745 90.6571 14.9745 84.0018C14.9745 72.5247 18.6418 63.119 25.9762 55.7845C33.3107 48.45 43.056 44.1716 55.2122 42.9492V21.1495H71.511V43.2548C83.5313 44.9526 92.9371 49.978 99.7283 58.3312C106.519 66.6164 109.915 77.3804 109.915 90.6232H80.4753C80.4753 82.4738 78.7775 76.3957 75.3819 72.3889C72.0543 68.3142 67.5721 66.2768 61.9354 66.2768C56.3667 66.2768 52.0543 67.8728 48.9983 71.0646C45.9422 74.1886 44.4142 78.5349 44.4142 84.1037C44.4142 89.2649 45.9083 93.4076 48.8964 96.5315C51.8845 99.6554 57.4193 102.847 65.5008 106.107C73.6502 109.367 80.3395 112.457 85.5687 115.377C90.7979 118.229 95.2121 121.489 98.8115 125.156C102.411 128.756 105.161 132.898 107.063 137.584C108.964 142.202 109.915 147.601 109.915 153.781C109.915 165.326 106.316 174.698 99.1171 181.896C91.9184 189.095 82.0033 193.34 69.3718 194.63V214.902H53.1748V194.732C39.2529 193.238 28.455 188.314 20.781 179.961C13.1749 171.54 9.37181 160.368 9.37181 146.447H38.8115C38.8115 154.528 40.713 160.742 44.5161 165.088C48.3871 169.367 53.9219 171.506 61.1205 171.506C67.0967 171.506 71.8166 169.944 75.2801 166.82C78.7436 163.628 80.4753 159.35 80.4753 153.985Z" fill="#33A04B"/>
</svg>
